<?xml version="1.0" encoding="utf-8"?>
<!-- Generator: Adobe Illustrator 25.1.0, SVG Export Plug-In . SVG Version: 6.00 Build 0)  -->
<svg version="1.1" id="Layer_2_1_" xmlns="http://www.w3.org/2000/svg" xmlns:xlink="http://www.w3.org/1999/xlink" x="0px" y="0px"
	 viewBox="0 0 376.2 95.3" style="enable-background:new 0 0 376.2 95.3;" xml:space="preserve">
<style type="text/css">
	.st0{fill:#6D6D6D;}
	.st1{fill:#EF6246;}
	.st2{fill:#FFFFFF;}
	.st3{fill:#001623;}
	.st4{fill:#F37320;}
	.st5{fill:none;}
	.st6{fill:#A09E9F;}
	.st7{fill:url(#SVGID_1_);}
	.st8{fill:url(#SVGID_2_);}
	.st9{fill:#C98F08;}
	.st10{fill:url(#SVGID_3_);}
	.st11{fill:url(#SVGID_4_);}
	.st12{fill:#AE7C07;}
	.st13{fill:url(#SVGID_5_);}
	.st14{fill:url(#SVGID_6_);}
	.st15{fill:url(#SVGID_7_);}
	.st16{fill:url(#SVGID_8_);}
	.st17{fill:url(#SVGID_9_);}
	.st18{fill:#0C74B5;}
	.st19{fill:url(#SVGID_10_);}
	.st20{fill:url(#SVGID_11_);}
	.st21{fill:url(#SVGID_12_);}
	.st22{fill:url(#SVGID_13_);}
	.st23{fill:url(#SVGID_14_);}
</style>
<g>
	<g>
		<path class="st0" d="M99.4,89.9V95H98V84.1h7v1.3h-5.5v3.2h5.1v1.3H99.4z"/>
		<path class="st0" d="M107.9,84.1V95h-1.5V84.1C106.4,84.1,107.9,84.1,107.9,84.1z"/>
		<path class="st0" d="M110.9,84.1h4.5c0.6,0,1,0,1.5,0.1c1.1,0.2,2.4,1,2.4,2.7c0,1.3-0.8,2.1-1.7,2.4c0.4,0.1,2,0.6,2,2.7
			c0,0.5-0.1,1.7-1.2,2.4c-0.8,0.6-1.6,0.6-3.2,0.6H111V84.1H110.9z M112.2,85.4v3.3h2.3c1.6,0,2.4,0,2.9-0.7c0.2-0.3,0.3-0.6,0.3-1
			c0-1.6-1.5-1.6-2.1-1.6H112.2z M112.2,89.9v3.8h3.2c0.8,0,1,0,1.3-0.1c0.9-0.2,1.3-0.9,1.3-1.7c0-1.3-0.9-1.7-1-1.7
			c-0.4-0.2-0.8-0.2-2.1-0.2h-2.7V89.9z"/>
		<path class="st0" d="M127.4,91.6h-4.1l-1.2,3.3h-1.5l4.1-10.9h1.5l4,10.9h-1.5L127.4,91.6z M126.9,90.4l-1.6-4.5l-1.7,4.5H126.9z"
			/>
		<path class="st0" d="M137.1,90v3.7h6.3V95h-7.7V84.1h7.5v1.3h-6.1v3.4h5.3v1.3L137.1,90L137.1,90z"/>
		<path class="st0" d="M146.1,87.7v1.1c0.7-1.2,1.8-1.3,2.3-1.3c0.9,0,2,0.5,2.4,1.7c0.1,0.4,0.1,0.9,0.1,1.5V95h-1.2v-4.1
			c0-0.7,0-1-0.1-1.2c-0.2-0.7-0.9-1-1.6-1c-0.5,0-1,0.2-1.4,0.6c-0.5,0.5-0.5,1.1-0.5,1.6V95h-1.2v-7.2h1.2V87.7z"/>
		<path class="st0" d="M159.6,84.1V95h-1.2v-0.9c-0.3,0.4-1,1.2-2.5,1.2c-2.1,0-3.3-1.6-3.3-3.9c0-2.8,1.8-3.8,3.3-3.8
			c0.5,0,1.7,0.1,2.5,1.2v-4.6L159.6,84.1L159.6,84.1z M153.9,91.3c0,1.5,0.7,2.7,2.3,2.7c1.4,0,2.3-1,2.3-2.8c0-2-1.2-2.7-2.2-2.7
			C155.2,88.6,153.9,89.1,153.9,91.3z"/>
		<path class="st0" d="M164.9,95.2c-2.5,0-3.6-1.9-3.6-3.8c0-1.6,0.8-3.9,3.6-3.9c2.4,0,3.5,1.9,3.5,3.8
			C168.4,93.5,167.1,95.2,164.9,95.2z M167,90.3c-0.3-1.4-1.2-1.8-2-1.8c-1.6,0-2.3,1.3-2.3,2.9c0,1.5,0.6,2.8,2.2,2.8
			c2,0,2.2-2.1,2.2-2.9C167.1,90.9,167,90.5,167,90.3z"/>
		<path class="st0" d="M171.3,87.7V89c0.7-1.4,2-1.4,2.5-1.4v1.3c-0.2,0-0.3,0-0.5,0c-0.7,0-1.3,0.3-1.7,0.9
			c-0.3,0.5-0.3,1.2-0.3,1.8V95h-1.2v-7.2h1.2V87.7z"/>
		<path class="st0" d="M177.3,91.8c-1.2-0.3-2.6-0.6-2.6-2.1c0-1.3,1.1-2.2,2.8-2.2c1.4,0,2.9,0.7,3.1,2.4l-1.3,0.2
			c0-0.4,0-0.8-0.5-1.2s-1-0.4-1.4-0.4c-1,0-1.4,0.6-1.4,1.1c0,0.7,0.8,0.9,1.7,1.1l0.7,0.2c0.9,0.2,2.4,0.6,2.4,2.1
			c0,1.2-1,2.3-3,2.3c-0.8,0-1.7-0.2-2.2-0.6c-0.2-0.2-0.9-0.8-1.1-2l1.4-0.2c0,0.3,0,0.9,0.5,1.4c0.4,0.4,1,0.4,1.5,0.4
			c1.1,0,1.7-0.4,1.7-1.2s-0.6-1-1.5-1.2L177.3,91.8z"/>
		<path class="st0" d="M188.8,92.7c-0.2,0.5-0.8,2.4-3.3,2.4c-2.2,0-3.6-1.5-3.6-3.9c0-2.7,2-3.8,3.5-3.8c1.3,0,2.8,0.7,3.2,2.6
			c0.1,0.6,0.1,1.2,0.1,1.5h-5.5c0,1.2,0.6,2.7,2.3,2.7c1.1,0,1.7-0.7,1.9-1.7L188.8,92.7z M187.5,90.7c-0.1-1.9-1.5-2.2-2.1-2.2
			c-1,0-1.9,0.8-2.1,2.2H187.5z"/>
		<path class="st0" d="M197.1,84.1V95h-1.2v-0.9c-0.3,0.4-1,1.2-2.5,1.2c-2.1,0-3.3-1.6-3.3-3.9c0-2.8,1.8-3.8,3.3-3.8
			c0.5,0,1.7,0.1,2.5,1.2v-4.6L197.1,84.1L197.1,84.1z M191.4,91.3c0,1.5,0.7,2.7,2.3,2.7c1.4,0,2.3-1,2.3-2.8c0-2-1.2-2.7-2.2-2.7
			C192.7,88.6,191.4,89.1,191.4,91.3z"/>
		<path class="st0" d="M203.6,84.1h4.5c0.6,0,1,0,1.5,0.1c1.1,0.2,2.4,1,2.4,2.7c0,1.3-0.8,2.1-1.7,2.4c0.4,0.1,2,0.6,2,2.7
			c0,0.5-0.1,1.7-1.2,2.4c-0.8,0.6-1.6,0.6-3.2,0.6h-4.2L203.6,84.1L203.6,84.1z M204.9,85.4v3.3h2.3c1.6,0,2.4,0,2.9-0.7
			c0.2-0.3,0.3-0.6,0.3-1c0-1.6-1.5-1.6-2.1-1.6H204.9z M204.9,89.9v3.8h3.2c0.8,0,1,0,1.3-0.1c0.9-0.2,1.3-0.9,1.3-1.7
			c0-1.3-0.9-1.7-1-1.7c-0.4-0.2-0.8-0.2-2.1-0.2h-2.7V89.9z"/>
		<path class="st0" d="M218.7,90.6v-0.2c0-0.8,0-2-1.6-2s-1.6,1.1-1.6,1.5l-1.3-0.1c0-0.3,0.1-0.7,0.3-1.1c0.4-0.8,1.3-1.3,2.5-1.3
			c0.7,0,1.6,0.2,2.1,0.6c0.8,0.6,0.8,1.5,0.8,2.4v2.4c0,0.7,0,1,0.5,1c0.2,0,0.3,0,0.4-0.1v1.1c-0.2,0-0.4,0.1-0.8,0.1
			c-0.6,0-1.1-0.2-1.3-1.1c-0.4,0.4-1.1,1.2-2.5,1.2s-2.5-0.8-2.5-2.1c0-0.4,0.1-0.8,0.3-1.1c0.4-0.6,1.2-1.1,3.4-1.3L218.7,90.6z
			 M216.8,91.7c-1.4,0.3-1.6,0.8-1.6,1.3c0,0.6,0.5,1.1,1.4,1.1c0.8,0,1.6-0.3,1.9-1.1c0.2-0.4,0.2-0.6,0.2-1.6
			C218.2,91.5,217.6,91.6,216.8,91.7z"/>
		<path class="st0" d="M224.5,91.8c-1.2-0.3-2.6-0.6-2.6-2.1c0-1.3,1.1-2.2,2.8-2.2c1.4,0,2.9,0.7,3.1,2.4l-1.3,0.2
			c0-0.4,0-0.8-0.5-1.2s-1-0.4-1.4-0.4c-1,0-1.4,0.6-1.4,1.1c0,0.7,0.8,0.9,1.7,1.1l0.7,0.2c0.9,0.2,2.4,0.6,2.4,2.1
			c0,1.2-1,2.3-3,2.3c-0.8,0-1.7-0.2-2.2-0.6c-0.2-0.2-0.9-0.8-1.1-2l1.4-0.2c0,0.3,0,0.9,0.5,1.4c0.4,0.4,1,0.4,1.5,0.4
			c1.1,0,1.7-0.4,1.7-1.2s-0.6-1-1.5-1.2L224.5,91.8z"/>
		<path class="st0" d="M232.5,90.6l3.3,4.4h-1.5l-2.6-3.5l-0.9,0.9V95h-1.2V84.1h1.2v6.7l2.9-3.1h1.5L232.5,90.6z"/>
		<path class="st0" d="M243.1,92.7c-0.2,0.5-0.8,2.4-3.3,2.4c-2.2,0-3.6-1.5-3.6-3.9c0-2.7,2-3.8,3.5-3.8c1.3,0,2.8,0.7,3.2,2.6
			c0.1,0.6,0.1,1.2,0.1,1.5h-5.5c0,1.2,0.6,2.7,2.3,2.7c1.1,0,1.7-0.7,1.9-1.7L243.1,92.7z M241.7,90.7c-0.1-1.9-1.5-2.2-2.1-2.2
			c-1,0-1.9,0.8-2.1,2.2H241.7z"/>
		<path class="st0" d="M246.4,87.7h1.3v1h-1.3v4.2c0,0.9,0,1.2,0.5,1.2c0.2,0,0.6-0.1,0.8-0.2v1c-0.2,0-0.7,0.1-1.2,0.1
			c-1.4,0-1.4-0.7-1.4-1.6v-4.7h-1.2v-1h1.2v-2.3h1.3L246.4,87.7L246.4,87.7z"/>
		<path class="st0" d="M250.5,84.1v4.6c0.2-0.3,0.9-1.2,2.5-1.2s3.3,1.1,3.3,3.9c0,1.8-0.9,3.8-3.4,3.8c-1.5,0-2.2-0.7-2.5-1.2v0.9
			h-1.2V84L250.5,84.1L250.5,84.1z M252.8,94.1c1.7,0,2.3-1.5,2.3-2.9c0-1.8-1-2.7-2.2-2.7c-1,0-2.3,0.6-2.3,2.7
			C250.5,93.4,251.6,94.1,252.8,94.1z"/>
		<path class="st0" d="M262.3,90.6v-0.2c0-0.8,0-2-1.6-2s-1.6,1.1-1.6,1.5l-1.3-0.1c0-0.3,0.1-0.7,0.3-1.1c0.4-0.8,1.3-1.3,2.5-1.3
			c0.7,0,1.6,0.2,2.1,0.6c0.8,0.6,0.8,1.5,0.8,2.4v2.4c0,0.7,0,1,0.5,1c0.2,0,0.3,0,0.4-0.1v1.1c-0.2,0-0.4,0.1-0.8,0.1
			c-0.6,0-1.1-0.2-1.3-1.1c-0.4,0.4-1.1,1.2-2.5,1.2s-2.5-0.8-2.5-2.1c0-0.4,0.1-0.8,0.3-1.1c0.4-0.6,1.2-1.1,3.4-1.3L262.3,90.6z
			 M260.4,91.7c-1.4,0.3-1.6,0.8-1.6,1.3c0,0.6,0.5,1.1,1.4,1.1c0.8,0,1.6-0.3,1.9-1.1c0.2-0.4,0.2-0.6,0.2-1.6
			C261.8,91.5,261.2,91.6,260.4,91.7z"/>
		<path class="st0" d="M266.9,84.1V95h-1.2V84.1C265.7,84.1,266.9,84.1,266.9,84.1z"/>
		<path class="st0" d="M270.2,84.1V95H269V84.1C269,84.1,270.2,84.1,270.2,84.1z"/>
		<path class="st0" d="M286.9,91c-0.5,2.1-2.2,4.2-5.4,4.2c-3.6,0-5.3-2.7-5.3-5.7c0-3.1,1.8-5.7,5.5-5.7c3.8,0,4.7,2.6,4.9,3.3
			l-1.5,0.3c-0.1-0.4-0.2-0.8-0.6-1.2c-0.5-0.6-1.5-1.3-2.8-1.3c-1.2,0-2.3,0.5-3,1.4s-0.9,2-0.9,3.1c0,2.7,1.4,4.6,3.9,4.6
			c1.6,0,3.3-0.9,3.6-3.2L286.9,91z"/>
		<path class="st0" d="M291.3,95.2c-2.5,0-3.6-1.9-3.6-3.8c0-1.6,0.8-3.9,3.6-3.9c2.4,0,3.5,1.9,3.5,3.8
			C294.8,93.5,293.5,95.2,291.3,95.2z M293.4,90.3c-0.3-1.4-1.2-1.8-2-1.8c-1.6,0-2.3,1.3-2.3,2.9c0,1.5,0.6,2.8,2.2,2.8
			c2,0,2.2-2.1,2.2-2.9C293.5,90.9,293.4,90.5,293.4,90.3z"/>
		<path class="st0" d="M296.5,87.7h1.2v4.1c0,0.8,0,0.8,0,1c0.1,0.9,0.9,1.1,1.4,1.1c0.8,0,1.3-0.3,1.6-0.7c0.4-0.5,0.4-1.1,0.4-2
			v-3.6h1.2v7.2h-1.2v-1.1c-0.2,0.3-1,1.3-2.5,1.3c-1,0-1.5-0.5-1.8-0.7c-0.5-0.6-0.5-1.2-0.5-2.4v-4.2H296.5z"/>
		<path class="st0" d="M305.8,87.7V89c0.7-1.4,2-1.4,2.5-1.4v1.3c-0.2,0-0.3,0-0.5,0c-0.7,0-1.3,0.3-1.7,0.9
			c-0.3,0.5-0.3,1.2-0.3,1.8V95h-1.2v-7.2h1.2V87.7z"/>
		<path class="st0" d="M311.1,87.7h1.3v1h-1.3v4.2c0,0.9,0,1.2,0.5,1.2c0.2,0,0.6-0.1,0.8-0.2v1c-0.2,0-0.7,0.1-1.2,0.1
			c-1.4,0-1.4-0.7-1.4-1.6v-4.7h-1.2v-1h1.2v-2.3h1.3L311.1,87.7L311.1,87.7z"/>
		<path class="st0" d="M319.8,89.9V95h-1.4V84.1h7v1.3h-5.5v3.2h5.1v1.3H319.8z"/>
		<path class="st0" d="M327.8,84.1v1.4h-1.2v-1.4C326.6,84.1,327.8,84.1,327.8,84.1z M327.8,87.7v7.2h-1.2v-7.2H327.8z"/>
		<path class="st0" d="M331.1,87.7v1.1c0.7-1.2,1.8-1.3,2.3-1.3c0.9,0,2,0.5,2.4,1.7c0.1,0.4,0.1,0.9,0.1,1.5V95h-1.2v-4.1
			c0-0.7,0-1-0.1-1.2c-0.2-0.7-0.9-1-1.6-1c-0.5,0-1,0.2-1.4,0.6c-0.5,0.5-0.5,1.1-0.5,1.6V95h-1.2v-7.2h1.2V87.7z"/>
		<path class="st0" d="M344.6,84.1V95h-1.2v-0.9c-0.3,0.4-1,1.2-2.5,1.2c-2.1,0-3.3-1.6-3.3-3.9c0-2.8,1.8-3.8,3.3-3.8
			c0.5,0,1.7,0.1,2.5,1.2v-4.6L344.6,84.1L344.6,84.1z M338.8,91.3c0,1.5,0.7,2.7,2.3,2.7c1.4,0,2.3-1,2.3-2.8c0-2-1.2-2.7-2.2-2.7
			C340.2,88.6,338.8,89.1,338.8,91.3z"/>
		<path class="st0" d="M353.1,92.7c-0.2,0.5-0.8,2.4-3.3,2.4c-2.2,0-3.6-1.5-3.6-3.9c0-2.7,2-3.8,3.5-3.8c1.3,0,2.8,0.7,3.2,2.6
			c0.1,0.6,0.1,1.2,0.1,1.5h-5.5c0,1.2,0.6,2.7,2.3,2.7c1.1,0,1.7-0.7,1.9-1.7L353.1,92.7z M351.7,90.7c-0.1-1.9-1.5-2.2-2.1-2.2
			c-1,0-1.9,0.8-2.1,2.2H351.7z"/>
		<path class="st0" d="M355.9,87.7V89c0.7-1.4,2-1.4,2.5-1.4v1.3c-0.2,0-0.3,0-0.5,0c-0.7,0-1.3,0.3-1.7,0.9
			c-0.3,0.5-0.3,1.2-0.3,1.8V95h-1.2v-7.2h1.2V87.7z"/>
	</g>
	<g>
		<g>
			<g>
				<path d="M65.4,10.4C58.3,3.7,48.7,0,38.2,0c-10.4,0.1-20,3.8-27.1,10.4C4,17.1,0,26.3,0,36.2c0,10.2,3.6,20.3,10.5,29.1
					c6.4,8.2,15.4,14.9,25.4,18.9l2.3,0.9l2.3-0.9c10-3.9,19-10.6,25.4-18.9c6.9-8.8,10.5-18.9,10.5-29.1
					C76.5,26.3,72.5,17.2,65.4,10.4z M38.2,78.4C20.1,71.2,6.3,54.5,6.3,36.2c0-16.7,13.6-29.8,31.9-29.8s31.9,13.1,31.9,29.8
					C70.1,54.5,56.3,71.2,38.2,78.4z"/>
				<g>
					<path class="st1" d="M63.7,38.5c-0.2-6-2.4-11.4-6.1-15.7c-0.4-0.4-0.7-0.9-1.1-1.3c-4.6-4.8-11.1-7.7-18.3-7.7
						s-13.7,3-18.3,7.7c0,0.8-0.6,1-1.1,1.3c-3.6,4.3-5.9,9.7-6.1,15.7l0.4,0.8l-0.4,0.8c0.2,6,2.5,11.5,6.2,15.8
						c0.6,0.2,0.3-0.2,1.4,0.1c0,0-0.4,0.6-0.3,1.1c4.6,4.7,11.1,7.6,18.2,7.6c7.1,0,13.6-2.9,18.2-7.6c0.4-0.4,0.8-0.8,1.1-1.3
						c3.7-4.3,6-9.8,6.2-15.8c0-0.3,0-0.6,0-0.8C63.8,39.1,63.8,38.8,63.7,38.5z M55.5,22.3c-1.9,1.2-3.9,2.2-6.1,3
						c-2.2-4.7-5.5-8.2-9.5-10.1C45.9,15.6,51.4,18.2,55.5,22.3z M38.2,44.3v-4h12.2c-0.1,4.3-0.8,8.1-2.1,11.3
						c-3.2-1-6.6-1.6-10.2-1.6L38.2,44.3L38.2,44.3z M38.2,38.5V29c3.6,0,7-0.6,10.2-1.6c1.2,3.2,1.9,6.9,2,11.1H38.2z M38.2,16.4
						c4.1,1.7,7.5,4.9,9.6,9.4c-3,0.9-6.2,1.5-9.6,1.5V25V16.4z M38.2,54.9v-3.2c3.3,0,6.5,0.5,9.5,1.4c-2.1,4.5-5.4,7.6-9.5,9.3
						V54.9z M39.9,63.6c4-2,7.3-5.4,9.4-10c2.1,0.8,4.2,1.8,6,3C51.3,60.6,45.9,63.2,39.9,63.6z M56.5,55.3c-2-1.3-4.2-2.4-6.5-3.3
						c1.3-3.4,2.1-7.4,2.2-11.8h10.3C62.3,46,60.1,51.3,56.5,55.3z M52.2,38.5c-0.1-4.4-0.8-8.3-2.1-11.7c2.3-0.9,4.5-2,6.6-3.3
						c3.5,4.1,5.7,9.3,5.9,15H52.2z"/>
					<g>
						<path class="st2" d="M21,22.3c-0.4-0.2-0.7-0.5-1.1-0.7c-0.4,0.4-0.8,0.8-1.1,1.3c0.4,0.2,0.7,0.5,1.1,0.7
							C25.2,27,31.5,29,38.3,29v-1.7C31.9,27.3,26,25.5,21,22.3z"/>
						<path class="st2" d="M19.9,55.3c-0.4,0.2-0.7,0.5-1.1,0.7c0.4,0.4,0.8,0.8,1.1,1.3c0.4-0.2,0.7-0.5,1.1-0.7
							c5-3.1,10.8-4.9,17.1-4.9V50C31.5,50,25.2,51.9,19.9,55.3z"/>
						<path class="st2" d="M14,38.5h-1.3c0,0.3,0,0.6,0,0.8c0,0.3,0,0.6,0,0.8H14h24.3v-1.7L14,38.5L14,38.5z"/>
					</g>
				</g>
			</g>
			<g>
				<rect x="243.3" y="8.8" class="st3" width="64.8" height="64.8"/>
				<rect x="311.4" y="8.8" class="st4" width="64.8" height="64.8"/>
				<g>
					<circle class="st5" cx="275.8" cy="41.3" r="27.6"/>
					<g>
						<path class="st6" d="M263.8,54.2c3.3,0.8,12,1.5,14.9,1.7v-0.6c-2.9-0.1-11.6-0.8-14.8-1.7L263.8,54.2z"/>
						<path class="st6" d="M256.3,29.8l-0.5,0.2c1.6,3.4,5.8,9.6,9.9,13.7c2.5,2.4,5.8,5.6,10.2,8.6c5.8,4.1,11.5,6.5,16.9,7.4
							l0.1-0.6c-8.4-1.3-17.5-6.6-26.9-15.8C262.2,39.4,257.9,33.1,256.3,29.8z"/>
						<path class="st6" d="M280.9,52c-0.1,0.1-0.2,0.2-0.3,0.3l0.4,0.4c0.1-0.1,0.2-0.3,0.3-0.4c0.8,0.5,1.7,0.7,2.8,0.7
							c2.6,0,5.6-0.3,10.2-2.8l-0.3-0.5c-4.5,2.4-7.4,2.8-9.9,2.8c-0.9,0-1.7-0.2-2.4-0.6c2.6-3.1,4.2-5.8,6.7-12.5
							c3-7.9,2.8-13.3,2.4-16.7l-0.6,0.1c0.4,3.3,0.6,8.7-2.4,16.5c-2.5,6.7-4.1,9.4-6.7,12.4c-1.1-0.8-1.9-2.1-2.7-4.1
							c-1.4-3.4-2.5-9.6-3.8-16.7L274,31c1.3,7.1,2.4,13.3,3.8,16.8C278.9,49.8,279.8,51.2,280.9,52z"/>
					</g>
					<g>
						<g>
							
								<linearGradient id="SVGID_1_" gradientUnits="userSpaceOnUse" x1="274.4501" y1="62.1" x2="274.4501" y2="82.7527" gradientTransform="matrix(1 0 0 -1 0 96.8)">
								<stop  offset="0" style="stop-color:#F5AE0B"/>
								<stop  offset="0.4727" style="stop-color:#D39509"/>
								<stop  offset="1" style="stop-color:#B07C07"/>
							</linearGradient>
							<path class="st7" d="M291.1,19.9c-0.1,0.6-0.8,0.5-1.4-0.1c-0.1-0.1-0.2-0.2-0.3-0.3c-0.9,0.3-2.2,0.7-3,1
								c-0.9,0.3-1.8,0.5-2.9,0.3s-1.6-0.4-1.6-0.8s0.7-0.9,1.9-1.5c0.2-0.1,0.3-0.1,0.5-0.2c-0.2-0.2-0.4-0.5-0.5-0.8
								s-0.4-0.8-0.8-1.3c-1,0.5-2.2,1-3.6,0.8c0,0.4-0.5,0.8-1.3,0.8s-1.5-0.6-2.3-1.4c-0.3-0.3-0.6-0.7-1.1-1.1
								c-1,0.5-1.8,1.3-2.5,1.3c-0.6,0-0.8-0.2-0.8-0.7c0-0.6,0.6-1.3,1.2-1.7c-0.3-0.1-0.6-0.1-0.9-0.1c-0.9,0.1-1.7,0.3-2.5,0.5
								c-1.7,1-2.3,3.2-2.9,4.5c-0.8,1.6-2.1,3.4-3.7,3.4c-1.5,0-1.1-2.1-2.5-2.1c-1.1,0-1.7,0.1-2.5,0.7c-0.2,0.2-0.7,0.6-0.9,0.8
								c-0.9,1.1-0.9,1.5-0.9,1.5c0.8,0.1,2.8,0.5,3.7,3.7s1.2,5.3,3.1,6.6c2,0.9,2.4,1,4.6,1s4.6-1.2,5.7-1.8
								c1.1-0.6,2.4-1.5,3.6-2.4s2.4-2.1,3.7-3.2c1.3-1.1,2.8-2.5,5.1-3.7c2.3-1.2,4.6-2.2,7.8-3.1c-0.8-0.8-1.4-1.1-1.9-1.3
								C291.1,19.5,291.2,19.7,291.1,19.9z"/>
							
								<linearGradient id="SVGID_2_" gradientUnits="userSpaceOnUse" x1="271.9846" y1="83.1475" x2="279.3098" y2="79.7925" gradientTransform="matrix(1 0 0 -1 0 96.8)">
								<stop  offset="0" style="stop-color:#765404"/>
								<stop  offset="0.5978" style="stop-color:#B08705"/>
								<stop  offset="1" style="stop-color:#D3A605"/>
							</linearGradient>
							<path class="st8" d="M272.5,14.2c0.9,0.2,1.6,0.7,2.2,1.1c0.5,0.4,0.9,0.8,1.1,1.1c0.8,0.8,1.5,1.4,2.3,1.4s1.3-0.5,1.3-0.8
								l0,0c0-0.4-0.1-0.7-0.3-1l0,0l-0.1-0.1l0,0c-0.1-0.1-0.1-0.2-0.2-0.3l0,0c-0.1-0.1-0.2-0.2-0.3-0.2l0,0
								c-0.1-0.1-0.2-0.2-0.3-0.2l0,0c-0.1,0-0.1-0.1-0.2-0.1l0,0c-0.1-0.1-0.2-0.1-0.3-0.2l0,0c-0.1,0-0.1-0.1-0.2-0.1l0,0
								c-0.1,0-0.1-0.1-0.2-0.1l0,0c0,0-0.1,0-0.1-0.1l0,0c-0.1,0-0.1,0-0.2-0.1l0,0c0,0-0.1,0-0.1-0.1l0,0c-0.1,0-0.1,0-0.2-0.1
								c-0.2-0.1-0.4-0.2-0.7-0.2c-0.8-0.2-1.7-0.3-2.6-0.2c-0.6,0.1-1.1,0.1-1.7,0.2C271.9,14.1,272.2,14.1,272.5,14.2z"/>
							<path class="st9" d="M284.8,15.6c0.2,0.2,0.4,0.4,0.5,0.5c0.3,0.4,0.6,0.7,0.9,1.1c0.6-0.1,1.3,0,1.7,0.3c0.1,0,0.3,0,0.4,0
								c-0.4-0.6-1-1.2-2-1.7c-0.2-0.1-0.3-0.1-0.5-0.2C285.5,15.5,285.2,15.5,284.8,15.6z"/>
						</g>
						
							<linearGradient id="SVGID_3_" gradientUnits="userSpaceOnUse" x1="273.9326" y1="62.9915" x2="303.3952" y2="62.9915" gradientTransform="matrix(1 0 0 -1 0 96.8)">
							<stop  offset="8.602151e-02" style="stop-color:#F36370"/>
							<stop  offset="0.1104" style="stop-color:#EE5E6A"/>
							<stop  offset="0.257" style="stop-color:#D6434D"/>
							<stop  offset="0.4124" style="stop-color:#C42E35"/>
							<stop  offset="0.5784" style="stop-color:#B61F25"/>
							<stop  offset="0.7624" style="stop-color:#AE161B"/>
							<stop  offset="1" style="stop-color:#AC1318"/>
						</linearGradient>
						<path class="st10" d="M294.2,20.7c-1.9-1.5-3.2-2.2-4-2.6c-1.1-0.6-0.4-0.2-0.4-0.2S286.4,16,286,16c-0.5-0.1-1.4,0.6,0.2,1.5
							c3.8,1,7,4.2,9.2,5.7l-0.1,0.1c-0.5-0.6-5.3-3.6-12-5.4c-3.1-0.8-4.4-0.6-4.4,0.1c-0.1,0.6,1,1.1,2.5,1.4
							c1.5,0.4,5.1,1.5,7.8,2.6c2.5,1.1,5.1,2.6,6.3,3.6c0.1,0.1,0.1,0.2,0.1,0.3c-0.1,0.1-0.2,0.1-0.3,0.1
							c-5.1-2.9-14.5-5.5-18.8-5.5c-1.8,0-2.3,0.6-2.3,1c0,0.5,0.5,0.6,1.6,1s2.8,0.6,8.6,2.4c5.2,1.5,9,3.3,10.2,4.5
							c0.2,0.2,0.2,0.5,0,0.8c-0.2,0.2-0.4,0.3-0.7,0.2c-6.5-2.8-13.6-4.5-16.1-4.8s-3.4,0.2-3.4,1s0.5,1,1.6,1.3s2.3,0.6,5,1.5
							c2.7,0.8,8.3,2.9,11.5,4.9s6.1,4.4,6.1,7.5c0,1.4-0.6,2-1.9,2c-1.8,0-3.6-1-5.6-1c-2.7,0-4.2,1.5-4.2,2.5
							c0,0.7,0.8,1.1,2.1,1.4c2.7,0.5,3.5,1,5.5,2.1s3.5,2.7,4.3,2.8s1.4-0.1,1.6-0.3c0.1-0.1,0.8-0.3,1.4-0.6c1-2.9,1.6-6,1.6-9.2
							C303.4,33.1,299.8,25.8,294.2,20.7z"/>
						<g>
							<path class="st5" d="M281.9,15L281.9,15L281.9,15z"/>
							<path class="st5" d="M281.7,14.9L281.7,14.9L281.7,14.9z"/>
							
								<linearGradient id="SVGID_4_" gradientUnits="userSpaceOnUse" x1="279.3734" y1="83.67" x2="286.8663" y2="78.2459" gradientTransform="matrix(1 0 0 -1 0 96.8)">
								<stop  offset="0" style="stop-color:#765404"/>
								<stop  offset="0.5978" style="stop-color:#B08705"/>
								<stop  offset="1" style="stop-color:#D3A605"/>
							</linearGradient>
							<path class="st11" d="M286.5,17.6c-0.1-0.2-0.2-0.3-0.3-0.5l0,0c-0.2-0.3-0.5-0.7-0.9-1.1c-0.1-0.1-0.3-0.3-0.5-0.5
								c-0.1-0.1-0.3-0.2-0.4-0.4c0-0.1-0.1-0.1-0.2-0.2c-1.9-0.9-4.8-1.4-6.1-1.2c0.6,0,1.1,0.1,1.7,0.2c0.1,0,0.2,0,0.3,0.1l0,0
								h0.1c0.1,0,0.2,0.1,0.2,0.1h0.1c0.1,0,0.2,0.1,0.2,0.1s0.1,0,0.1,0.1c0,0,0.1,0,0.1,0.1c0,0,0.1,0,0.1,0.1c0,0,0.1,0,0.1,0.1
								c0.1,0,0.2,0.1,0.3,0.2c0,0,0,0,0.1,0s0.1,0.1,0.2,0.1l0,0l0,0c0.1,0,0.1,0.1,0.2,0.1l0,0c0,0,0,0,0.1,0.1l0,0
								c0.4,0.3,0.8,0.7,1,1.1c0.4,0.6,0.7,1.1,0.8,1.3c0.1,0.3,0.3,0.5,0.5,0.8c0.4,0.5,0.9,0.8,1.4,0.8c0.8,0,0.9-0.4,0.9-0.8
								C286.6,18.1,286.6,17.8,286.5,17.6z"/>
							<path class="st12" d="M281.7,14.9c0.1,0,0.1,0.1,0.2,0.1C281.8,15,281.7,14.9,281.7,14.9z"/>
							
								<linearGradient id="SVGID_5_" gradientUnits="userSpaceOnUse" x1="279.342" y1="83.6267" x2="286.8351" y2="78.2026" gradientTransform="matrix(1 0 0 -1 0 96.8)">
								<stop  offset="0" style="stop-color:#765404"/>
								<stop  offset="0.5978" style="stop-color:#B08705"/>
								<stop  offset="1" style="stop-color:#D3A605"/>
							</linearGradient>
							<path class="st13" d="M281.7,14.9c0.1,0,0.1,0.1,0.2,0.1C281.8,15,281.7,14.9,281.7,14.9z"/>
							<path class="st12" d="M281.9,15.1C281.9,15,281.9,15,281.9,15.1c-0.1-0.1-0.2-0.1-0.2-0.2l0,0c-0.1,0-0.1-0.1-0.2-0.1
								c0,0,0,0-0.1,0c-0.1-0.1-0.2-0.1-0.3-0.2c0,0-0.1,0-0.1-0.1c0,0-0.1,0-0.1-0.1c0,0-0.1,0-0.1-0.1c0,0-0.1,0-0.1-0.1
								c-0.1,0-0.2-0.1-0.2-0.1h-0.1c-0.1,0-0.1-0.1-0.2-0.1h-0.1l0,0c-0.1,0-0.2-0.1-0.3-0.1c-0.6-0.1-1.1-0.1-1.7-0.2
								c-0.7,0.1-1.2,0.3-1.5,0.5c0.1,0,0.1,0,0.2,0.1l0,0c0,0,0.1,0,0.1,0.1l0,0c0.1,0,0.1,0,0.2,0.1l0,0c0,0,0.1,0,0.1,0.1l0,0
								c0.1,0,0.1,0.1,0.2,0.1l0,0c0.1,0,0.1,0.1,0.2,0.1l0,0c0.1,0.1,0.2,0.1,0.3,0.2l0,0c0.1,0,0.1,0.1,0.2,0.1l0,0
								c0.1,0.1,0.2,0.1,0.3,0.2l0,0c0.1,0.1,0.2,0.2,0.3,0.2l0,0c0.1,0.1,0.2,0.2,0.2,0.3l0,0l0.1,0.1
								C279.8,15.6,280.9,15.3,281.9,15.1L281.9,15.1z"/>
							<path class="st12" d="M281.9,15.1L281.9,15.1C282,15.1,282,15.1,281.9,15.1L281.9,15.1z"/>
							
								<linearGradient id="SVGID_6_" gradientUnits="userSpaceOnUse" x1="279.3193" y1="83.5953" x2="286.8123" y2="78.1712" gradientTransform="matrix(1 0 0 -1 0 96.8)">
								<stop  offset="0" style="stop-color:#765404"/>
								<stop  offset="0.5978" style="stop-color:#B08705"/>
								<stop  offset="1" style="stop-color:#D3A605"/>
							</linearGradient>
							<path class="st14" d="M281.9,15.1L281.9,15.1C282,15.1,282,15.1,281.9,15.1L281.9,15.1z"/>
						</g>
						
							<linearGradient id="SVGID_7_" gradientUnits="userSpaceOnUse" x1="286.7455" y1="81.1959" x2="291.1631" y2="76.7784" gradientTransform="matrix(1 0 0 -1 0 96.8)">
							<stop  offset="0" style="stop-color:#765404"/>
							<stop  offset="0.5978" style="stop-color:#B08705"/>
							<stop  offset="1" style="stop-color:#D3A605"/>
						</linearGradient>
						<path class="st15" d="M288.3,17.4c0.5,0.8,0.8,1.5,1.2,2.1c0.1,0.1,0.2,0.2,0.3,0.3c0.6,0.6,1.3,0.7,1.4,0.1
							c0-0.2,0-0.4-0.1-0.6c-0.1-0.3-0.3-0.7-0.6-1c-0.3-0.5-0.8-0.8-1.3-1.1c-0.9-0.5-1.9-1-2.9-1.4
							C287.2,16.2,287.8,16.8,288.3,17.4z"/>
						<g>
							<g>
								
									<linearGradient id="SVGID_8_" gradientUnits="userSpaceOnUse" x1="259.3111" y1="37.7068" x2="278.1741" y2="52.7302" gradientTransform="matrix(1 0 0 -1 0 96.8)">
									<stop  offset="0" style="stop-color:#464243"/>
									<stop  offset="0.1776" style="stop-color:#504C4D"/>
									<stop  offset="0.4768" style="stop-color:#696667"/>
									<stop  offset="0.8587" style="stop-color:#939091"/>
									<stop  offset="1" style="stop-color:#A4A2A3"/>
								</linearGradient>
								<path class="st16" d="M271.5,67.9L272,67l1.8-0.1c1.1,0,3.1-1.6,3.8-2.1s1.6-0.9,3.2-2c1.7-1.7,2.8-3,2.8-3.8
									c0-0.7-0.6-1-1-1c-0.9,0-1.4,0.7-2,1.4s-2.4,2.2-2.4,2.2s-1.9,1.2-2.8,1.8c-0.9,0.6-1.3,0.8-2.3,1.1l-0.9-1.3
									c2-1.3,4.4-3.2,6.5-5.3c1.8-1.7,3.3-3.5,4.5-5c0.4-0.5,0.3-1.3-0.2-1.7c-0.5-0.4-1.2-0.3-1.6,0.1c-0.7,0.7-1.8,1.8-2.3,2.3
									c-0.8,0.8-0.3,0.3-2.5,2.3s-4,3-5.8,4.1l-0.5-1.6c1.2-0.9,3-2.3,5-4.3c1.7-1.6,3.8-3.7,5.2-5.4c0.4-0.5,0.4-1.3-0.1-1.8l0,0
									c-0.5-0.5-1.2-0.5-1.7-0.1c-0.3,0.3-0.7,0.6-1.1,0.9c-0.9,0.7-3.4,3.2-5.4,4.8c-1.8,1.5-4.7,3.3-7,4.9
									c-0.4,0.3-1,0.2-1.3-0.3c-0.2-0.4-0.1-0.8,0.2-1.1c1.7-1.5,5.2-4.3,7.7-6.4c2.8-2.4,3.9-3.6,4-4.4c0.1-0.6-0.3-1.4-1.2-1.4
									s-1.4,0.4-2.7,1.5c-1.3,1.2-4.1,3.2-5.3,4.1c-1.2,0.9-4.6,3.6-6.4,4.2s-2.3,1-3.6,1c-1.3,0-2.7-2.2-2.7-3.5
									c0-0.9,0.6-1.2,0.8-2.5c1.4-1.5,2.2-3.5,2.2-4.9s-1.7-0.9-1.8-2c-1.2,0.6-2.7,2.8-3.8,4.2c-1.1,1.4-1.8,2.6-1.6,3.9
									c2.6,7.9,8.6,14.2,16.3,17.2c0.7,0.2,2.7,0.9,3.4,1.1C269.9,68.2,271.1,68.1,271.5,67.9z"/>
								<g>
									
										<linearGradient id="SVGID_9_" gradientUnits="userSpaceOnUse" x1="256.929" y1="35.4156" x2="259.0537" y2="37.4659" gradientTransform="matrix(1 0 0 -1 0 96.8)">
										<stop  offset="0" style="stop-color:#828081"/>
										<stop  offset="0.5492" style="stop-color:#737172"/>
										<stop  offset="1" style="stop-color:#6D6A6B"/>
									</linearGradient>
									<path class="st17" d="M269.3,68.1c-3.1-1-4.9-2.8-6.9-5.2c-2-2.4-3.4-4.2-6.9-6.2c-3.5-2.1-4.8-3.9-6-6.8
										C252.5,58.9,260,65.9,269.3,68.1z"/>
								</g>
							</g>
							<g>
								<path class="st18" d="M291,63.4c0,0,1.1-0.7,1-2.2c0,0,0,0,0.1,0c2.2-0.3,4.3-1.4,5.7-3.2c1.2-1.6,2.2-3.3,3.1-5.2
									c-0.2-0.8-0.3-1.4-0.5-1.5c-1,2.5-2.2,4.6-4,5.9c-3.8,2.3-10,2.7-13.6,4.5c-3.6,1.7-5.1,3-8.2,5.1l0.1,1.3
									C281.2,68.2,288,65.1,291,63.4z"/>
								
									<linearGradient id="SVGID_10_" gradientUnits="userSpaceOnUse" x1="277.7006" y1="53.1945" x2="286.4798" y2="30.3239" gradientTransform="matrix(1 0 0 -1 0 96.8)">
									<stop  offset="0" style="stop-color:#3294D5"/>
									<stop  offset="0.1047" style="stop-color:#3C95D3"/>
									<stop  offset="0.3118" style="stop-color:#4C97D0"/>
									<stop  offset="0.391" style="stop-color:#4288BF"/>
									<stop  offset="0.737" style="stop-color:#184B77"/>
									<stop  offset="0.8978" style="stop-color:#08335B"/>
								</linearGradient>
								<path class="st19" d="M292.8,43.3c-0.2,0-0.3,0-0.5,0c-0.6,0.1-1,0.7-0.8,1.3c0.4,1.4,1,4.4,1,9.4c0,7.6-1.6,8.5-2.3,8.5
									c-0.8,0-1-1.4-1.2-3.1c-0.3-4.1-1.5-9.6-2.2-12.7c-0.6-3-1.3-4.8-2.7-4.8c-1.4,0.1-1.6,1-1.6,1.7c0,1.5,1.3,7,2,16.1
									c0.2,2.4,0.4,4.9-1.1,4.9s-2.1-4-2.7-6s-1.7-5.7-2.1-7.3s-0.9-3.8-2.3-3.8c-2,0-1.8,2.2-1.6,3.5s0.3,1.6,0.3,1.6
									c0.9,5.5,2.7,12.1,2.7,13.1s-0.8,1.2-1,1.2c-2.2,0-4.4-3.5-5.7-8.4c-0.5-1.8-1-2.5-1.7-2.5s-1.6,0.4-1.6,1.9
									c0,3,2.4,8.3,3.3,10.1c0.1,0.2,0.3,0.4,0.6,0.4c1.4,0.2,2.8,0.3,4.2,0.3c6.7,0,12.9-2.4,17.7-6.4c0.5-0.5,1-1,1.4-1.6
									c0.9-1.6,1.3-3.4,1.3-6.1C296.2,48.8,294.6,43.4,292.8,43.3z"/>
								
									<linearGradient id="SVGID_11_" gradientUnits="userSpaceOnUse" x1="299.6323" y1="44.95" x2="302.405" y2="44.95" gradientTransform="matrix(1 0 0 -1 0 96.8)">
									<stop  offset="0" style="stop-color:#07385B"/>
									<stop  offset="0.2819" style="stop-color:#08426A"/>
									<stop  offset="0.8235" style="stop-color:#095C92"/>
									<stop  offset="1" style="stop-color:#0A65A0"/>
								</linearGradient>
								<path class="st20" d="M299.6,55.3c1.3-2.1,2.2-4.4,2.9-6.9C298.9,49.6,300.9,52.6,299.6,55.3z"/>
							</g>
						</g>
						<g>
							<path class="st5" d="M269.1,14.6C269.1,14.6,269,14.6,269.1,14.6s0.2,0,0.2-0.1C269.2,14.5,269.1,14.5,269.1,14.6z"/>
							<path class="st5" d="M269.5,14.4c0.1,0,0.3-0.1,0.4-0.1C269.8,14.4,269.6,14.4,269.5,14.4z"/>
							
								<radialGradient id="SVGID_12_" cx="267.1573" cy="69.0074" r="19.0839" gradientTransform="matrix(1 0 0 -1 0 96.8)" gradientUnits="userSpaceOnUse">
								<stop  offset="0" style="stop-color:#8ED4A3"/>
								<stop  offset="0.1401" style="stop-color:#82D09C"/>
								<stop  offset="0.3942" style="stop-color:#62C689"/>
								<stop  offset="0.7307" style="stop-color:#2EB56B"/>
								<stop  offset="1" style="stop-color:#00A650"/>
							</radialGradient>
							<path class="st21" d="M269.3,14.5c0.1,0,0.2,0,0.2-0.1C269.4,14.5,269.4,14.5,269.3,14.5z"/>
							
								<radialGradient id="SVGID_13_" cx="267.1573" cy="82.5" r="3.9343" gradientTransform="matrix(1 0 0 -1 0 96.8)" gradientUnits="userSpaceOnUse">
								<stop  offset="0" style="stop-color:#8ED4A3"/>
								<stop  offset="0.1401" style="stop-color:#82D09C"/>
								<stop  offset="0.3942" style="stop-color:#62C689"/>
								<stop  offset="0.7307" style="stop-color:#2EB56B"/>
								<stop  offset="1" style="stop-color:#00A650"/>
							</radialGradient>
							<path class="st22" d="M270,14.3C270,14.3,269.9,14.3,270,14.3C269.9,14.3,270,14.3,270,14.3L270,14.3z"/>
							
								<radialGradient id="SVGID_14_" cx="267.1573" cy="69.0074" r="19.0839" gradientTransform="matrix(1 0 0 -1 0 96.8)" gradientUnits="userSpaceOnUse">
								<stop  offset="0" style="stop-color:#8ED4A3"/>
								<stop  offset="0.1401" style="stop-color:#82D09C"/>
								<stop  offset="0.3942" style="stop-color:#62C689"/>
								<stop  offset="0.7307" style="stop-color:#2EB56B"/>
								<stop  offset="1" style="stop-color:#00A650"/>
							</radialGradient>
							<path class="st23" d="M275.5,37.1c-1.2-0.6-3.1-1.1-5.7-1.9s-9.5-2.6-11.3-3s-3-0.9-3-1.8s1.2-1.1,2.9-1.1
								c4.7,0,13.2,2.1,15.1,2.6c2,0.5,3.2-0.1,3.2-1.2c0-1.5-1.7-2.1-4.1-2.7c-2.6-0.7-5.8-1.3-8.3-1.7c-4.8-0.8-9.1-0.2-9.1-1.2
								c0-2,2.5-4.4,5.4-6.1c2.7-1.6,5-2.2,6.7-2.4c0.4-0.8,1-1.5,1.8-2c-12,3-20.8,13.8-20.8,26.8c0,1.5,0.1,3,0.4,4.4
								c0.2,1.5,1.1,2.9,2.4,3.8c0.8,0.5,1.7,1,2.7,1.6c2.2,1.2,6.4,2.9,8.4,2.9c1,0,1.4-0.7,1.4-1.2c0-1.4-1.4-1.7-4.1-2.7
								c-2.6-1-3.9-1.7-5.8-3.2c-1.3-1-1.8-1.8-2-2.8c-0.2-0.7,0.6-1.3,1.2-1c1.5,0.7,3.5,1.5,4.9,1.9c2.1,0.6,6.3,1.8,8.6,2.5
								c2.3,0.7,4.2,0.8,4.7-0.4c0.4-1.2-0.4-2.1-2.2-2.6c-2.1-0.7-6.5-2.3-10.3-3.7s-4.9-2-4.9-3s0.7-1.2,1.4-1.2
								c0.9,0,2.2,0.3,5.5,1s10.6,2.2,12.3,2.6c1.6,0.4,3.5,0.8,4-0.3C277.3,38.6,276.7,37.7,275.5,37.1z"/>
						</g>
					</g>
					<g>
						<path class="st6" d="M273.9,24.4c2.1-2.2,6.2-2.7,9.8-2.7c6.9,0,17.9,4.5,19.1,13.8c-0.2-3.9-2.9-8-6.2-10.2
							c-3.4-2.3-7.7-4.2-13.8-4.2c-4.9,0-7.8,1.1-9.6,2.8c-0.8-0.4-1.6-0.9-2.4-1.2c2.4-2.5,7.5-7.5,12.9-7.5c1.1,0,2.3,0.2,4.1,1.2
							c0,0-1.6-1.6-4.4-1.6c-4.6,0-9.8,3.7-13.4,7.5c-0.9-0.4-1.7-0.7-2.6-1c1.7-1.9,2.8-3.9,3-6.1c0.1-0.9,0.3-1.2,0.5-1.1
							c-0.1-0.1-0.1-0.2-0.3-0.2c-0.3,0-0.5,0.2-0.5,0.5c-0.7,3.6-1.9,5.1-3.3,6.7c-2.1-0.7-4.1-1.1-5.9-1.1c-2.4,0-5,0.8-5.3,2.5
							c1.4-1.8,3.7-1.9,4.7-1.9c2,0,4.1,0.4,6,1.1c-7.5,7-18.4,10.9-18.4,20.4c0,0.7,0.4,2,0.4,2c-0.2-0.8-0.1-1.4-0.1-2
							c0-9.6,13-14.1,18.8-20.2c0.9,0.3,1.7,0.7,2.5,1.1c-4.8,5.3-13.5,18.1-13.5,30.9c0,6.2,2,9.8,5.5,11.1
							c-2.2-1.2-4.8-3.7-4.8-10.8c0-14.3,10.8-27.9,13.5-30.9c0.8,0.4,1.6,0.9,2.4,1.3c-1.7,2.2-2,5.2-2,8.4
							c0,4.6,1.5,11.2,4.3,20.8c1.5,4.9,3.2,8.4,4.5,11c1.4,2.6,2,3.5,2.5,3.5c0.4,0,0.8,0,0.8-0.2c-0.5,0-0.9-0.5-1.4-1.4
							c-1.4-2.3-2.9-5.5-3.8-7.9c-1.3-3.4-6.2-18-6.2-25.8c0-3.1,0.6-5.8,2-7.9c9,5.6,25.8,19.7,25.8,29.5c0,2.5-1.3,3.4-1.9,4.1
							c1.3-1.2,2.1-2.3,2.1-4.2c0-5.6-4.7-12.2-9.2-17.1C287.1,33.8,280.7,28.2,273.9,24.4z"/>
						<path class="st2" d="M273.8,24.2c2.1-2.2,6.2-2.7,9.8-2.7c6.9,0,18.1,4.6,19.2,14c0-4.5-3-8.2-6.3-10.4
							c-3.4-2.3-7.7-4.2-13.8-4.2c-4.9,0-7.8,1.1-9.6,2.8c-0.8-0.4-1.6-0.9-2.4-1.2c2.4-2.5,7.5-7.5,12.9-7.5c1.1,0,2.4,0.3,4.2,1.4
							c0,0-1.7-1.8-4.5-1.8c-4.6,0-9.8,3.7-13.4,7.5c-0.9-0.4-1.7-0.7-2.6-1c1.7-1.9,2.8-3.9,3-6.1c0.1-0.9,0.3-1.1,0.6-0.9
							c0-0.2-0.2-0.3-0.4-0.3c-0.3,0-0.5,0.2-0.5,0.5c-0.7,3.6-1.9,5.1-3.3,6.7c-2.1-0.7-4.1-1.1-5.9-1.1c-2.4,0-5.1,0.9-5.2,2.6
							c1.3-2,3.6-2,4.6-2c2,0,4.1,0.4,6,1.1c-7.5,7-18.4,10.9-18.4,20.4c0,0.7,0.2,1.5,0.5,2.2c-0.2-0.8-0.3-1.5-0.3-2.2
							c0-9.6,13-14.1,18.8-20.2c0.9,0.3,1.7,0.7,2.5,1.1c-4.8,5.3-13.5,18.1-13.5,30.9c0,6.2,1.9,10.2,5.6,11.2
							c-2.4-1.2-5-3.8-5-10.9c0-14.3,10.9-27.9,13.6-30.9c0.8,0.4,1.6,0.9,2.4,1.3c-1.7,2.2-2,5.2-2,8.4c0,4.6,1.5,11.2,4.3,20.8
							c1.5,4.9,3.2,8.4,4.5,11c1.4,2.6,2.1,3.9,2.6,3.9c0.4,0,0.8-0.2,0.8-0.5c-0.7,0.2-1-0.5-1.6-1.4c-1.4-2.3-2.9-5.7-3.8-8
							c-1.3-3.4-6.1-18-6.1-25.8c0-3.1,0.6-5.8,2-7.9c9,5.6,25.8,19.7,25.8,29.5c0,2.5-1.2,3.6-1.8,4.3c1.6-1.1,2.4-2.4,2.4-4.4
							c0-5.6-5.2-12.2-9.6-17.1C287,33.7,280.6,28.1,273.8,24.2z"/>
					</g>
				</g>
				<g>
					<g>
						<path class="st2" d="M322.6,38V19.9c0-1,0.4-1.4,1.4-1.4h9v3.8h-6.5v4.1h5.5V30h-5.5v8H322.6z"/>
						<path class="st2" d="M334.2,38V19.9c0-1,0.4-1.4,1.4-1.4h2.5V38H334.2z"/>
						<path class="st2" d="M340.2,38V19.9c0-1,0.4-1.4,1.4-1.4h4.4c1.4,0,2.6,0.3,3.5,0.9c0.9,0.6,1.6,1.3,1.9,2.1
							c0.3,0.8,0.5,1.5,0.5,2.2c0.1,3.1-1.7,4.3-2.3,4.5c1.4,0.5,2.5,2.2,2.5,4.3c0,3.7-2.5,5.6-5.8,5.6L340.2,38L340.2,38z
							 M343.9,26.6h1.7c1.3,0,2.3-0.8,2.3-2.4s-0.9-2.4-2.3-2.4h-1.7V26.6z M343.9,34.7h1.7c1.3,0,2.3-0.8,2.3-2.4s-1-2.4-2.3-2.4
							h-1.7V34.7z"/>
						<path class="st2" d="M353.6,38V23.4c0-1,0.3-2.3,1.2-3.5s2.6-1.8,4.4-1.8c4.9,0,5.7,3.8,5.7,5.3v14.7h-3.8v-6.7h-3.6V38H353.6
							z M357.5,27.8h3.6v-4c0-1.2-0.6-2.2-1.8-2.2c-1.7,0-1.8,1.7-1.8,2.2L357.5,27.8L357.5,27.8z"/>
					</g>
				</g>
			</g>
			<rect x="226.1" y="20.9" class="st0" width="1.9" height="52.2"/>
			<g>
				<path d="M94,21.8c4.2,0,7.6,2.3,8.9,6.2h-4.4c-0.9-1.8-2.5-2.7-4.6-2.7c-3.3,0-5.7,2.4-5.7,6.3c0,3.8,2.4,6.3,5.7,6.3
					c2,0,3.7-0.9,4.6-2.7h4.4c-1.3,3.9-4.7,6.2-8.9,6.2c-5.5,0-9.6-4-9.6-9.7C84.3,25.8,88.5,21.8,94,21.8z"/>
				<path d="M112.9,41.2c-4.4,0-7.6-3-7.6-7.8s3.4-7.8,7.8-7.8c4.4,0,7.8,3,7.8,7.8C120.7,38.2,117.2,41.2,112.9,41.2z M112.9,37.9
					c2,0,3.9-1.5,3.9-4.5s-1.9-4.5-3.9-4.5s-3.8,1.4-3.8,4.5S110.8,37.9,112.9,37.9z"/>
				<path d="M137.8,41H134v-1.9c-1,1.3-2.6,2.1-4.5,2.1c-3.5,0-6-2.3-6-6.4V26h3.8v8.3c0,2.4,1.3,3.7,3.3,3.7c2.1,0,3.4-1.3,3.4-3.7
					V26h3.8V41z"/>
				<path d="M145.3,41h-3.8V25.9h3.8v2.3c1-1.6,2.5-2.6,4.6-2.6v4h-1c-2.3,0-3.6,0.9-3.6,3.8V41z"/>
				<path d="M153.1,29h-1.8v-3.1h1.8v-3.7h3.8v3.7h3.4V29h-3.4v7.3c0,1,0.4,1.4,1.6,1.4h1.8v3.2h-2.4c-2.9,0-4.8-1.2-4.8-4.7V29
					L153.1,29z"/>
				<path d="M168.8,41.2c-3.8,0-6.4-2.2-6.6-5h3.8c0.1,1.1,1.2,2,2.7,2s2.3-0.7,2.3-1.6c0-2.7-8.5-1-8.5-6.5c0-2.5,2.2-4.5,6-4.5
					c3.6,0,5.9,2,6.1,5H171c-0.1-1.2-1-2-2.5-2c-1.4,0-2.2,0.6-2.2,1.4c0,2.7,8.4,1,8.5,6.6C174.8,39.3,172.5,41.2,168.8,41.2z"/>
				<path d="M191.1,41.2c-4.4,0-7.6-3-7.6-7.8s3.4-7.8,7.8-7.8s7.8,3,7.8,7.8C198.9,38.2,195.5,41.2,191.1,41.2z M191.1,37.9
					c2,0,3.9-1.5,3.9-4.5s-1.9-4.5-3.9-4.5s-3.8,1.4-3.8,4.5S189,37.9,191.1,37.9z"/>
				<path d="M202.2,29h-1.7v-3.1h1.7v-0.8c0-3.7,2.1-5.4,6.3-5.3V23c-1.9-0.1-2.5,0.5-2.5,2.2v0.6h2.6v3.1H206v11.9h-3.9V29H202.2z"
					/>
			</g>
			<g>
				<path d="M85.9,59.2h-1.8v-3.1h1.8v-3.7h3.8v3.7h3.4v3.1h-3.4v7.3c0,1,0.4,1.4,1.6,1.4h1.8v3.2h-2.4c-2.9,0-4.8-1.2-4.8-4.7
					L85.9,59.2L85.9,59.2z"/>
				<path d="M95.8,51h3.8v6.9c1-1.3,2.7-2.1,4.7-2.1c3.4,0,5.9,2.3,5.9,6.5v8.8h-3.8v-8.3c0-2.4-1.3-3.7-3.3-3.7
					c-2.1,0-3.4,1.3-3.4,3.7v8.3h-3.8L95.8,51L95.8,51z"/>
				<path d="M120.4,71.4c-4.4,0-7.6-3-7.6-7.8s3.1-7.8,7.6-7.8c4.4,0,7.4,3,7.4,7.5c0,0.5,0,1-0.1,1.5h-11c0.2,2.2,1.7,3.5,3.6,3.5
					c1.6,0,2.5-0.8,3-1.8h4.1C126.6,69.2,124.1,71.4,120.4,71.4z M116.7,62.2h7.2c-0.1-2-1.6-3.2-3.6-3.2
					C118.5,58.9,117,60.1,116.7,62.2z"/>
				<path class="st1" d="M135.8,52.1h4.1l3.3,14.8l3.9-14.8h4.2l3.6,14.7l3.4-14.7h4.1l-5.3,19h-4.5L149,57.6l-3.7,13.5h-4.5
					L135.8,52.1z"/>
				<path class="st1" d="M171.6,71.4c-4.4,0-7.6-3-7.6-7.8s3.4-7.8,7.8-7.8s7.8,3,7.8,7.8C179.5,68.3,176,71.4,171.6,71.4z
					 M171.6,68c2,0,3.9-1.5,3.9-4.5s-1.9-4.5-3.9-4.5s-3.8,1.4-3.8,4.5C167.9,66.6,169.6,68,171.6,68z"/>
				<path class="st1" d="M186.1,71.1h-3.8V56h3.8v2.3c1-1.6,2.5-2.6,4.6-2.6v4h-1c-2.3,0-3.6,0.9-3.6,3.8V71.1z"/>
				<path class="st1" d="M193.3,51h3.8v20.1h-3.8V51z"/>
				<path class="st1" d="M206.8,55.8c2,0,3.9,0.9,4.9,2.3v-7.2h3.9V71h-3.9v-2.2c-0.9,1.4-2.6,2.5-5,2.5c-3.8,0-6.9-3.1-6.9-7.8
					S202.9,55.8,206.8,55.8z M207.8,59.1c-2,0-4,1.5-4,4.4s1.9,4.5,4,4.5s4-1.6,4-4.4S209.9,59.1,207.8,59.1z"/>
			</g>
		</g>
		<g>
			<g>
				<path class="st2" d="M322.1,46.7h3.4v1.6h-1.4v1.5h1.3v1.5h-1.3V53h1.5v1.6h-3.5V46.7z"/>
				<path class="st2" d="M330.8,54.5v0.9h-1.5c-0.4,0-0.6,0-0.8-0.1c-0.1-0.1-0.3-0.1-0.3-0.3c-0.1-0.1-0.1-0.3-0.1-0.6
					c-0.5,0-0.8-0.1-1.2-0.4s-0.5-0.5-0.7-0.9s-0.2-0.9-0.2-1.6v-2.4c0-0.5,0-0.9,0.1-1.2s0.2-0.5,0.4-0.8c0.2-0.2,0.4-0.4,0.8-0.6
					c0.3-0.1,0.6-0.2,1-0.2c0.5,0,0.9,0.1,1.2,0.2c0.4,0.2,0.6,0.3,0.8,0.6c0.2,0.2,0.3,0.5,0.3,0.7s0.1,0.6,0.1,1.1v2.5
					c0,0.7,0,1.2-0.1,1.4s-0.2,0.4-0.4,0.6s-0.4,0.3-0.8,0.3c0,0.2,0,0.3,0.1,0.3s0.2,0.1,0.4,0.1h0.9V54.5z M328.8,48.7
					c0-0.4,0-0.6-0.1-0.7s-0.1-0.2-0.2-0.2s-0.2,0-0.2,0.1c-0.1,0.1-0.1,0.3-0.1,0.7v3.8c0,0.5,0,0.7,0.1,0.8c0,0.1,0.1,0.2,0.3,0.2
					c0.1,0,0.2-0.1,0.3-0.2c0-0.1,0.1-0.4,0.1-0.9v-3.6H328.8z"/>
				<path class="st2" d="M336.2,46.7v5.2c0,0.6,0,1-0.1,1.2c0,0.2-0.2,0.5-0.3,0.7s-0.4,0.4-0.7,0.6c-0.3,0.1-0.7,0.2-1.1,0.2
					c-0.5,0-0.9-0.1-1.2-0.2c-0.4-0.2-0.6-0.4-0.8-0.6s-0.3-0.5-0.3-0.8s0-0.8,0-1.7v-4.6h2v5.8c0,0.3,0,0.6,0.1,0.6
					c0,0.1,0.1,0.1,0.2,0.1s0.2-0.1,0.2-0.2s0.1-0.3,0.1-0.7v-5.7L336.2,46.7L336.2,46.7z"/>
				<path class="st2" d="M339.1,46.7v7.8h-2v-7.8H339.1z"/>
				<path class="st2" d="M339.9,46.7h2c0.5,0,1,0,1.3,0.1s0.5,0.2,0.7,0.4s0.2,0.4,0.3,0.6c0.1,0.2,0.1,0.6,0.1,1.1v0.7
					c0,0.5-0.1,0.9-0.2,1.1s-0.3,0.4-0.6,0.5c-0.3,0.1-0.6,0.2-1.1,0.2h-0.5v3.1h-2L339.9,46.7L339.9,46.7z M341.9,48.1v2
					c0.1,0,0.1,0,0.1,0c0.2,0,0.3,0,0.4-0.1s0.1-0.3,0.1-0.6v-0.6c0-0.3,0-0.4-0.1-0.5S342.2,48.1,341.9,48.1z"/>
				<path class="st2" d="M351.1,46.7v7.8h-1.8v-5.2l-0.7,5.2h-1.3l-0.7-5.1v5.1h-1.8v-7.8h2.6c0.1,0.5,0.2,1,0.2,1.6l0.3,2l0.5-3.6
					H351.1z"/>
				<path class="st2" d="M351.9,46.7h3.4v1.6H354v1.5h1.3v1.5H354V53h1.5v1.6H352v-7.9H351.9z"/>
				<path class="st2" d="M360.6,46.7v7.8h-1.8l-1-3.5v3.5h-1.7v-7.8h1.7l1.1,3.5v-3.5H360.6z"/>
				<path class="st2" d="M365.5,46.7v1.6h-1.2v6.2h-2v-6.2h-1.2v-1.6H365.5z"/>
			</g>
			<g>
				<path class="st2" d="M332.7,62.9v1.3l-0.5,0.3l0.7,1.3h-1.8l-0.2-0.4c-0.6,0.4-1.2,0.6-1.7,0.6c-0.6,0-1-0.2-1.3-0.6
					s-0.5-0.8-0.5-1.4c0-0.4,0.1-0.8,0.3-1c0.2-0.2,0.4-0.4,0.8-0.6c-0.5-0.4-0.8-0.9-0.8-1.5c0-0.5,0.2-1,0.5-1.3s0.9-0.5,1.5-0.5
					s1,0.2,1.4,0.5c0.3,0.3,0.5,0.7,0.5,1.2s-0.2,1-0.6,1.4l0.7,1.2L332.7,62.9z M330.1,64.6l-0.6-1c-0.2,0.2-0.4,0.5-0.4,0.7
					s0,0.3,0.1,0.4s0.2,0.1,0.3,0.1C329.7,64.8,329.9,64.7,330.1,64.6z M329.7,61.6c0.2-0.3,0.3-0.6,0.3-0.8c0-0.1,0-0.2-0.1-0.3
					c-0.1-0.1-0.2-0.1-0.3-0.1c-0.1,0-0.2,0-0.2,0.1c-0.1,0.1-0.1,0.2-0.1,0.3C329.3,61,329.4,61.3,329.7,61.6z"/>
				<path class="st2" d="M339.8,58.1l-1,7.8h-3.1l-1.2-7.8h2.1c0.2,2.1,0.4,3.9,0.5,5.4c0.1-1.5,0.2-2.8,0.3-4l0.1-1.4H339.8z"/>
				<path class="st2" d="M340.2,58.1h3.4v1.6h-1.3v1.5h1.3v1.5h-1.3v1.7h1.5V66h-3.5v-7.9H340.2z"/>
				<path class="st2" d="M348.8,58.1v7.8H347l-1-3.5v3.5h-1.7v-7.8h1.7l1.1,3.5v-3.5H348.8z"/>
				<path class="st2" d="M354.2,58.1v5.2c0,0.6,0,1-0.1,1.2c0,0.2-0.2,0.5-0.3,0.7s-0.4,0.4-0.7,0.6c-0.3,0.1-0.7,0.2-1.1,0.2
					c-0.5,0-0.9-0.1-1.2-0.2c-0.4-0.2-0.6-0.4-0.8-0.6s-0.3-0.5-0.3-0.8s0-0.8,0-1.7v-4.6h2v5.8c0,0.3,0,0.6,0.1,0.6
					c0,0.1,0.1,0.1,0.2,0.1s0.2-0.1,0.2-0.2s0.1-0.3,0.1-0.7V58L354.2,58.1L354.2,58.1z"/>
				<path class="st2" d="M355.1,58.1h3.4v1.6h-1.4v1.5h1.3v1.5h-1.3v1.7h1.5V66h-3.5V58.1z"/>
			</g>
		</g>
	</g>
</g>
</svg>
